<svg xmlns="http://www.w3.org/2000/svg" viewBox="0 0 180 200">
  <defs>
    <linearGradient id="g" x1="90" y1="10" x2="90" y2="190" gradientUnits="userSpaceOnUse">
      <stop offset="0%" stop-color="#1A3660"/>
      <stop offset="100%" stop-color="#0C1B30"/>
    </linearGradient>
    <linearGradient id="s" x1="90" y1="10" x2="90" y2="190" gradientUnits="userSpaceOnUse">
      <stop offset="0%" stop-color="#00CFFF" stop-opacity="0.7"/>
      <stop offset="40%" stop-color="#00CFFF" stop-opacity="0.35"/>
      <stop offset="100%" stop-color="#00CFFF" stop-opacity="0.1"/>
    </linearGradient>
    <clipPath id="c">
      <path d="M90 16 L162 50 L162 120 Q162 160 90 188 Q18 160 18 120 L18 50 Z"/>
    </clipPath>
  </defs>
  <!-- Shield -->
  <path d="M90 16 L162 50 L162 120 Q162 160 90 188 Q18 160 18 120 L18 50 Z" fill="url(#g)" stroke="url(#s)" stroke-width="1.5"/>
  <!-- Radar (clipped) -->
  <g clip-path="url(#c)">
    <circle cx="90" cy="92" r="18" stroke="#00CFFF" stroke-width="0.8" fill="none" opacity="0.3"/>
    <circle cx="90" cy="92" r="32" stroke="#00CFFF" stroke-width="0.6" fill="none" opacity="0.2"/>
    <circle cx="90" cy="92" r="46" stroke="#00CFFF" stroke-width="0.5" fill="none" opacity="0.14"/>
    <line x1="90" y1="52" x2="90" y2="132" stroke="#00CFFF" stroke-width="0.5" opacity="0.15"/>
    <line x1="50" y1="92" x2="130" y2="92" stroke="#00CFFF" stroke-width="0.5" opacity="0.15"/>
    <circle cx="90" cy="92" r="4" fill="#00CFFF" opacity="0.95"/>
    <circle cx="90" cy="92" r="7" stroke="#00CFFF" stroke-width="0.8" fill="none" opacity="0.4"/>
    <circle cx="108" cy="82" r="2.5" fill="#00CFFF" opacity="0.7"/>
    <circle cx="72" cy="104" r="2" fill="#00CFFF" opacity="0.5"/>
  </g>
  <!-- Top notch -->
  <path d="M80 16 L90 10 L100 16" stroke="#00CFFF" stroke-width="1.5" fill="none" opacity="0.6"/>
</svg>
